<?xml version="1.0" encoding="utf-8"?>
<!-- Generator: Adobe Illustrator 18.0.0, SVG Export Plug-In . SVG Version: 6.00 Build 0)  -->
<!DOCTYPE svg PUBLIC "-//W3C//DTD SVG 1.1//EN" "http://www.w3.org/Graphics/SVG/1.1/DTD/svg11.dtd">
<svg version="1.1" id="Calque_1" xmlns="http://www.w3.org/2000/svg" xmlns:xlink="http://www.w3.org/1999/xlink" x="0px" y="0px"
	 viewBox="0 0 32 32" enable-background="new 0 0 32 32" xml:space="preserve">
<path fill="#FFFFFF" d="M0.6,15.2C0.6,6.8,7.4,0,15.8,0S31,6.8,31,15.2s-6.8,15.2-15.2,15.2S0.6,23.6,0.6,15.2z M15.9,7.4
	c-2,0-2.3,0-3.1,0c-0.8,0-1.3,0.2-1.8,0.3C10.5,8,10.1,8.2,9.7,8.7C9.2,9.1,9,9.5,8.8,10c-0.2,0.5-0.3,1-0.3,1.8c0,0.8,0,1.1,0,3.1
	s0,2.3,0,3.1c0,0.8,0.2,1.3,0.3,1.8c0.2,0.5,0.4,0.9,0.9,1.3c0.4,0.4,0.8,0.7,1.3,0.9c0.5,0.2,1,0.3,1.8,0.3c0.8,0,1.1,0,3.1,0
	c2,0,2.3,0,3.1,0c0.8,0,1.3-0.2,1.8-0.3c0.5-0.2,0.9-0.4,1.3-0.9c0.4-0.4,0.7-0.8,0.9-1.3c0.2-0.5,0.3-1,0.3-1.8c0-0.8,0-1.1,0-3.1
	s0-2.3,0-3.1c0-0.8-0.2-1.3-0.3-1.8c-0.2-0.5-0.4-0.9-0.9-1.3c-0.4-0.4-0.8-0.7-1.3-0.9c-0.5-0.2-1-0.3-1.8-0.3
	C18.2,7.4,17.9,7.4,15.9,7.4L15.9,7.4z M15.2,8.8c0.2,0,0.4,0,0.7,0c2,0,2.2,0,3,0c0.7,0,1.1,0.2,1.4,0.3c0.4,0.1,0.6,0.3,0.9,0.6
	c0.3,0.3,0.4,0.5,0.6,0.9c0.1,0.3,0.2,0.7,0.3,1.4c0,0.8,0,1,0,3s0,2.2,0,3c0,0.7-0.2,1.1-0.3,1.4c-0.1,0.4-0.3,0.6-0.6,0.9
	c-0.3,0.3-0.5,0.4-0.9,0.6c-0.3,0.1-0.7,0.2-1.4,0.3c-0.8,0-1,0-3,0c-2,0-2.2,0-3,0c-0.7,0-1.1-0.2-1.4-0.3
	c-0.4-0.1-0.6-0.3-0.9-0.6s-0.4-0.5-0.6-0.9c-0.1-0.3-0.2-0.7-0.3-1.4c0-0.8,0-1,0-3s0-2.2,0-3c0-0.7,0.2-1.1,0.3-1.4
	c0.1-0.4,0.3-0.6,0.6-0.9s0.5-0.4,0.9-0.6c0.3-0.1,0.7-0.2,1.4-0.3C13.6,8.8,13.8,8.8,15.2,8.8L15.2,8.8z M19.9,10
	c-0.5,0-0.9,0.4-0.9,0.9c0,0.5,0.4,0.9,0.9,0.9s0.9-0.4,0.9-0.9S20.4,10,19.9,10L19.9,10z M15.9,11c-2.1,0-3.9,1.7-3.9,3.9
	s1.7,3.9,3.9,3.9s3.9-1.7,3.9-3.9S18,11,15.9,11L15.9,11z M15.9,12.4c1.4,0,2.5,1.1,2.5,2.5c0,1.4-1.1,2.5-2.5,2.5
	c-1.4,0-2.5-1.1-2.5-2.5C13.4,13.5,14.5,12.4,15.9,12.4L15.9,12.4z"/>
</svg>
