<?xml version="1.0" encoding="utf-8"?>
<!-- Generator: Adobe Illustrator 18.0.0, SVG Export Plug-In . SVG Version: 6.00 Build 0)  -->
<!DOCTYPE svg PUBLIC "-//W3C//DTD SVG 1.1//EN" "http://www.w3.org/Graphics/SVG/1.1/DTD/svg11.dtd">
<svg version="1.1" id="Calque_1" xmlns="http://www.w3.org/2000/svg" xmlns:xlink="http://www.w3.org/1999/xlink" x="0px" y="0px"
	 viewBox="0 0 32 32" enable-background="new 0 0 32 32" xml:space="preserve">
<path fill="#FFFFFF" d="M0.6,15.2C0.6,6.8,7.4,0,15.8,0S31,6.8,31,15.2s-6.8,15.2-15.2,15.2S0.6,23.6,0.6,15.2z M15.4,12.4l0,0.5
	l-0.5-0.1c-1.9-0.2-3.6-1.1-5.1-2.5L9.1,9.6l-0.2,0.5c-0.4,1.1-0.1,2.4,0.7,3.2c0.4,0.5,0.3,0.5-0.4,0.2c-0.3-0.1-0.5-0.2-0.5-0.1
	c-0.1,0.1,0.2,1.1,0.4,1.4c0.3,0.5,0.8,1.1,1.5,1.4l0.5,0.2l-0.6,0c-0.6,0-0.6,0-0.6,0.2c0.2,0.7,1.1,1.4,2,1.8l0.7,0.2l-0.6,0.3
	c-0.9,0.5-1.9,0.8-2.9,0.8c-0.5,0-0.9,0.1-0.9,0.1c0,0.1,1.3,0.7,2.1,0.9c2.3,0.7,5,0.4,7-0.8c1.4-0.8,2.9-2.5,3.5-4.2
	c0.4-0.9,0.7-2.5,0.7-3.2c0-0.5,0-0.6,0.6-1.1c0.4-0.3,0.7-0.7,0.7-0.8c0.1-0.2,0.1-0.2-0.4,0c-0.9,0.3-1,0.3-0.6-0.2
	c0.3-0.3,0.7-1,0.7-1.1c0,0-0.2,0-0.3,0.1c-0.2,0.1-0.6,0.3-0.9,0.4l-0.6,0.2l-0.5-0.4c-0.3-0.2-0.7-0.4-0.9-0.5
	c-0.5-0.2-1.4-0.1-1.9,0C16.1,9.8,15.3,11,15.4,12.4z"/>
</svg>
